<mxfile host="65bd71144e">
    <diagram id="JVtnZI1Q8N9a2HBQjwLW" name="Page-1">
        <mxGraphModel dx="1153" dy="1956" grid="1" gridSize="10" guides="1" tooltips="1" connect="1" arrows="1" fold="1" page="1" pageScale="1" pageWidth="850" pageHeight="1100" math="0" shadow="0">
            <root>
                <mxCell id="0"/>
                <mxCell id="1" parent="0"/>
                <mxCell id="2" value="App Gateway" style="aspect=fixed;html=1;points=[];align=center;image;fontSize=12;image=img/lib/azure2/networking/Application_Gateways.svg;" parent="1" vertex="1">
                    <mxGeometry x="78" y="-790" width="64" height="64" as="geometry"/>
                </mxCell>
                <mxCell id="4" value="Private Link &lt;br&gt;Endpoint" style="aspect=fixed;html=1;points=[];align=center;image;fontSize=12;image=img/lib/azure2/networking/Private_Link.svg;" parent="1" vertex="1">
                    <mxGeometry x="81" y="-1030" width="72" height="66" as="geometry"/>
                </mxCell>
                <mxCell id="5" value="Kubernetes&lt;br&gt;Service" style="aspect=fixed;html=1;points=[];align=center;image;fontSize=12;image=img/lib/azure2/compute/Kubernetes_Services.svg;" parent="1" vertex="1">
                    <mxGeometry x="158" y="-892" width="68" height="60" as="geometry"/>
                </mxCell>
                <mxCell id="6" value="KeyVault" style="aspect=fixed;html=1;points=[];align=center;image;fontSize=12;image=img/lib/azure2/security/Key_Vaults.svg;" parent="1" vertex="1">
                    <mxGeometry x="74.5" y="-570" width="68" height="68" as="geometry"/>
                </mxCell>
                <mxCell id="7" value="Firewall" style="aspect=fixed;html=1;points=[];align=center;image;fontSize=12;image=img/lib/azure2/networking/Firewalls.svg;" parent="1" vertex="1">
                    <mxGeometry x="74.5" y="-660" width="71" height="60" as="geometry"/>
                </mxCell>
                <mxCell id="8" value="Load Balancer" style="aspect=fixed;html=1;points=[];align=center;image;fontSize=12;image=img/lib/azure2/networking/Load_Balancers.svg;" parent="1" vertex="1">
                    <mxGeometry x="70" y="-480" width="72" height="72" as="geometry"/>
                </mxCell>
                <mxCell id="9" value="Bastion" style="aspect=fixed;html=1;points=[];align=center;image;fontSize=12;image=img/lib/azure2/networking/Bastions.svg;" parent="1" vertex="1">
                    <mxGeometry x="81" y="-900" width="57.99999999999999" height="68" as="geometry"/>
                </mxCell>
                <mxCell id="10" value="Container&lt;br&gt;Registry" style="aspect=fixed;html=1;points=[];align=center;image;fontSize=12;image=img/lib/azure2/containers/Container_Registries.svg;" parent="1" vertex="1">
                    <mxGeometry x="158" y="-790" width="68" height="61" as="geometry"/>
                </mxCell>
                <mxCell id="11" value="On Premises" style="aspect=fixed;html=1;points=[];align=center;image;fontSize=12;image=img/lib/azure2/other/Exchange_On_Premises_Access.svg;" parent="1" vertex="1">
                    <mxGeometry x="177" y="-1020" width="40" height="68" as="geometry"/>
                </mxCell>
                <mxCell id="13" value="" style="group" parent="1" vertex="1" connectable="0">
                    <mxGeometry x="600" y="-1040" width="470" height="240" as="geometry"/>
                </mxCell>
                <mxCell id="12" value="" style="rounded=1;whiteSpace=wrap;html=1;dashed=1;" parent="13" vertex="1">
                    <mxGeometry y="10.909090909090908" width="470" height="229.09090909090907" as="geometry"/>
                </mxCell>
                <mxCell id="3" value="VNET" style="aspect=fixed;html=1;points=[];align=center;image;fontSize=12;image=img/lib/azure2/networking/Virtual_Networks.svg;" parent="13" vertex="1">
                    <mxGeometry x="325.38461538461536" width="40.36363636363637" height="24.098181818181814" as="geometry"/>
                </mxCell>
                <mxCell id="15" value="Repo" style="verticalLabelPosition=bottom;html=1;verticalAlign=top;align=center;strokeColor=none;fillColor=#00BEF2;shape=mxgraph.azure.git_repository;dashed=1;" parent="1" vertex="1">
                    <mxGeometry x="167" y="-477" width="50" height="50" as="geometry"/>
                </mxCell>
                <mxCell id="16" value="DevOps" style="aspect=fixed;html=1;points=[];align=center;image;fontSize=12;image=img/lib/azure2/devops/Azure_DevOps.svg;dashed=1;" parent="1" vertex="1">
                    <mxGeometry x="162" y="-568" width="64" height="64" as="geometry"/>
                </mxCell>
                <mxCell id="17" value="Pipelines" style="image;sketch=0;aspect=fixed;html=1;points=[];align=center;fontSize=12;image=img/lib/mscae/Azure_Pipelines.svg;" parent="1" vertex="1">
                    <mxGeometry x="167" y="-655" width="50" height="50" as="geometry"/>
                </mxCell>
                <mxCell id="19" style="edgeStyle=none;html=1;entryX=0.5;entryY=1;entryDx=0;entryDy=0;startArrow=none;" parent="1" source="18" target="12" edge="1">
                    <mxGeometry relative="1" as="geometry">
                        <mxPoint x="935" y="-680" as="sourcePoint"/>
                    </mxGeometry>
                </mxCell>
                <mxCell id="20" value="" style="edgeStyle=none;html=1;entryX=0.5;entryY=1;entryDx=0;entryDy=0;endArrow=none;startArrow=classic;startFill=1;" parent="1" target="18" edge="1">
                    <mxGeometry relative="1" as="geometry">
                        <mxPoint x="835" y="-640" as="sourcePoint"/>
                        <mxPoint x="935" y="-830" as="targetPoint"/>
                    </mxGeometry>
                </mxCell>
                <mxCell id="18" value="Vnet Pairing" style="aspect=fixed;html=1;points=[];align=center;image;fontSize=12;image=img/lib/azure2/networking/Virtual_Networks.svg;dashed=1;" parent="1" vertex="1">
                    <mxGeometry x="818.25" y="-750" width="33.5" height="20" as="geometry"/>
                </mxCell>
                <mxCell id="21" value="Service Bus" style="aspect=fixed;html=1;points=[];align=center;image;fontSize=12;image=img/lib/azure2/integration/Service_Bus.svg;dashed=1;" parent="1" vertex="1">
                    <mxGeometry x="247" y="-477" width="68" height="60" as="geometry"/>
                </mxCell>
                <mxCell id="22" value="Storage Account" style="aspect=fixed;html=1;points=[];align=center;image;fontSize=12;image=img/lib/azure2/storage/Storage_Accounts.svg;dashed=1;" parent="1" vertex="1">
                    <mxGeometry x="250" y="-570" width="65" height="52" as="geometry"/>
                </mxCell>
                <mxCell id="23" value="FileShare" style="aspect=fixed;html=1;points=[];align=center;image;fontSize=12;image=img/lib/azure2/storage/Azure_Fileshare.svg;dashed=1;" parent="1" vertex="1">
                    <mxGeometry x="247" y="-368" width="68" height="68" as="geometry"/>
                </mxCell>
                <mxCell id="24" value="&lt;p&gt;As a big Org we want to provide a Compute Platform for our teams.&lt;/p&gt;&lt;ul&gt;&lt;li data-list=&quot;bullet&quot;&gt;Microservices will use REST and Messaging&lt;/li&gt;&lt;li data-list=&quot;bullet&quot;&gt;Compute Platform should be private (no public access)&lt;/li&gt;&lt;li data-list=&quot;bullet&quot;&gt;in the future there might be more compute networks which should be easily connected to on Premises&lt;/li&gt;&lt;li data-list=&quot;bullet&quot;&gt;application expects massive Load Peaks - scalability&lt;/li&gt;&lt;li data-list=&quot;bullet&quot;&gt;Document DBs are prefered&lt;/li&gt;&lt;li data-list=&quot;bullet&quot;&gt;we expect PaaS to be to expensive&lt;/li&gt;&lt;li data-list=&quot;bullet&quot;&gt;customers need to be registered to use the apps&lt;/li&gt;&lt;li data-list=&quot;bullet&quot;&gt;we need to enforce different policies for different regions&lt;/li&gt;&lt;/ul&gt;" style="text;html=1;align=left;verticalAlign=middle;resizable=0;points=[];autosize=1;strokeColor=none;fillColor=none;" parent="1" vertex="1">
                    <mxGeometry x="60" y="-270" width="600" height="230" as="geometry"/>
                </mxCell>
                <mxCell id="25" value="Repo" style="image;sketch=0;aspect=fixed;html=1;points=[];align=center;fontSize=12;image=img/lib/mscae/Azure_Repos.svg;" vertex="1" parent="1">
                    <mxGeometry x="87.5" y="-350" width="45" height="50" as="geometry"/>
                </mxCell>
                <mxCell id="26" value="B2C" style="aspect=fixed;html=1;points=[];align=center;image;fontSize=12;image=img/lib/azure2/identity/Azure_AD_B2C.svg;" vertex="1" parent="1">
                    <mxGeometry x="162.5" y="-364" width="69" height="64" as="geometry"/>
                </mxCell>
                <mxCell id="27" value="Subscription" style="image;aspect=fixed;html=1;points=[];align=center;fontSize=12;image=img/lib/azure2/general/Subscriptions.svg;" vertex="1" parent="1">
                    <mxGeometry x="253" y="-665.5" width="44" height="71" as="geometry"/>
                </mxCell>
                <mxCell id="28" value="Tenant AAD" style="image;aspect=fixed;html=1;points=[];align=center;fontSize=12;image=img/lib/azure2/identity/Azure_Active_Directory.svg;" vertex="1" parent="1">
                    <mxGeometry x="245" y="-790" width="70" height="64" as="geometry"/>
                </mxCell>
                <mxCell id="29" value="Managed &lt;br&gt;Identity" style="aspect=fixed;html=1;points=[];align=center;image;fontSize=12;image=img/lib/azure2/identity/Managed_Identities.svg;" vertex="1" parent="1">
                    <mxGeometry x="246" y="-895" width="68" height="66" as="geometry"/>
                </mxCell>
                <mxCell id="30" value="Management&lt;br&gt;Groups" style="aspect=fixed;html=1;points=[];align=center;image;fontSize=12;image=img/lib/azure2/general/Management_Groups.svg;" vertex="1" parent="1">
                    <mxGeometry x="250" y="-1028" width="66" height="64" as="geometry"/>
                </mxCell>
                <mxCell id="31" value="Resource&lt;br&gt;Group" style="aspect=fixed;html=1;points=[];align=center;image;fontSize=12;image=img/lib/azure2/general/Resource_Groups.svg;" vertex="1" parent="1">
                    <mxGeometry x="340" y="-1028" width="68" height="64" as="geometry"/>
                </mxCell>
            </root>
        </mxGraphModel>
    </diagram>
</mxfile>